%TF.GenerationSoftware,KiCad,Pcbnew,9.0.2*%
%TF.CreationDate,2026-07-29T23:05:25+07:00*%
%TF.ProjectId,lsp0506,6c737030-3530-4362-9e6b-696361645f70,rev?*%
%TF.SameCoordinates,Original*%
%TF.FileFunction,Copper,L2,Bot*%
%TF.FilePolarity,Positive*%
%FSLAX46Y46*%
G04 Gerber Fmt 4.6, Leading zero omitted, Abs format (unit mm)*
G04 Created by KiCad (PCBNEW 9.0.2) date 2026-07-29 23:05:25*
%MOMM*%
%LPD*%
G01*
G04 APERTURE LIST*
G04 Aperture macros list*
%AMRoundRect*
0 Rectangle with rounded corners*
0 $1 Rounding radius*
0 $2 $3 $4 $5 $6 $7 $8 $9 X,Y pos of 4 corners*
0 Add a 4 corners polygon primitive as box body*
4,1,4,$2,$3,$4,$5,$6,$7,$8,$9,$2,$3,0*
0 Add four circle primitives for the rounded corners*
1,1,$1+$1,$2,$3*
1,1,$1+$1,$4,$5*
1,1,$1+$1,$6,$7*
1,1,$1+$1,$8,$9*
0 Add four rect primitives between the rounded corners*
20,1,$1+$1,$2,$3,$4,$5,0*
20,1,$1+$1,$4,$5,$6,$7,0*
20,1,$1+$1,$6,$7,$8,$9,0*
20,1,$1+$1,$8,$9,$2,$3,0*%
G04 Aperture macros list end*
%TA.AperFunction,NonConductor*%
%ADD10C,0.200000*%
%TD*%
%ADD11C,0.300000*%
%TA.AperFunction,NonConductor*%
%ADD12C,0.300000*%
%TD*%
%TA.AperFunction,ComponentPad*%
%ADD13C,1.440000*%
%TD*%
%TA.AperFunction,ComponentPad*%
%ADD14C,1.400000*%
%TD*%
%TA.AperFunction,ComponentPad*%
%ADD15R,0.850000X0.850000*%
%TD*%
%TA.AperFunction,ComponentPad*%
%ADD16C,0.850000*%
%TD*%
%TA.AperFunction,ComponentPad*%
%ADD17R,1.800000X1.800000*%
%TD*%
%TA.AperFunction,ComponentPad*%
%ADD18C,1.800000*%
%TD*%
%TA.AperFunction,ComponentPad*%
%ADD19RoundRect,0.250001X-0.949999X-0.949999X0.949999X-0.949999X0.949999X0.949999X-0.949999X0.949999X0*%
%TD*%
%TA.AperFunction,ComponentPad*%
%ADD20C,2.400000*%
%TD*%
%TA.AperFunction,ComponentPad*%
%ADD21RoundRect,0.250000X-0.550000X-0.550000X0.550000X-0.550000X0.550000X0.550000X-0.550000X0.550000X0*%
%TD*%
%TA.AperFunction,ComponentPad*%
%ADD22C,1.600000*%
%TD*%
%TA.AperFunction,Conductor*%
%ADD23C,1.000000*%
%TD*%
G04 APERTURE END LIST*
D10*
X95500000Y-85000000D02*
X160500000Y-85000000D01*
X95500000Y-85000000D01*
X95500000Y-85000000D02*
X160500000Y-85000000D01*
X160500000Y-133500000D01*
X95500000Y-133500000D01*
X95500000Y-85000000D01*
X95500000Y-85000000D02*
X160500000Y-85000000D01*
X160500000Y-133500000D01*
X95500000Y-133500000D01*
X95500000Y-85000000D01*
X95500000Y-85000000D02*
X160500000Y-85000000D01*
X95500000Y-85000000D01*
D11*
D12*
X121328703Y-125458328D02*
X121471560Y-125386900D01*
X121471560Y-125386900D02*
X121542989Y-125244042D01*
X121542989Y-125244042D02*
X121542989Y-123958328D01*
X120828703Y-125386900D02*
X120685846Y-125458328D01*
X120685846Y-125458328D02*
X120400132Y-125458328D01*
X120400132Y-125458328D02*
X120257275Y-125386900D01*
X120257275Y-125386900D02*
X120185846Y-125244042D01*
X120185846Y-125244042D02*
X120185846Y-125172614D01*
X120185846Y-125172614D02*
X120257275Y-125029757D01*
X120257275Y-125029757D02*
X120400132Y-124958328D01*
X120400132Y-124958328D02*
X120614418Y-124958328D01*
X120614418Y-124958328D02*
X120757275Y-124886900D01*
X120757275Y-124886900D02*
X120828703Y-124744042D01*
X120828703Y-124744042D02*
X120828703Y-124672614D01*
X120828703Y-124672614D02*
X120757275Y-124529757D01*
X120757275Y-124529757D02*
X120614418Y-124458328D01*
X120614418Y-124458328D02*
X120400132Y-124458328D01*
X120400132Y-124458328D02*
X120257275Y-124529757D01*
X119542989Y-124458328D02*
X119542989Y-125958328D01*
X119542989Y-124529757D02*
X119400132Y-124458328D01*
X119400132Y-124458328D02*
X119114417Y-124458328D01*
X119114417Y-124458328D02*
X118971560Y-124529757D01*
X118971560Y-124529757D02*
X118900132Y-124601185D01*
X118900132Y-124601185D02*
X118828703Y-124744042D01*
X118828703Y-124744042D02*
X118828703Y-125172614D01*
X118828703Y-125172614D02*
X118900132Y-125315471D01*
X118900132Y-125315471D02*
X118971560Y-125386900D01*
X118971560Y-125386900D02*
X119114417Y-125458328D01*
X119114417Y-125458328D02*
X119400132Y-125458328D01*
X119400132Y-125458328D02*
X119542989Y-125386900D01*
X117042989Y-125458328D02*
X117042989Y-123958328D01*
X116185846Y-125458328D02*
X116828703Y-124601185D01*
X116185846Y-123958328D02*
X117042989Y-124815471D01*
X114900132Y-123958328D02*
X115185846Y-123958328D01*
X115185846Y-123958328D02*
X115328703Y-124029757D01*
X115328703Y-124029757D02*
X115400132Y-124101185D01*
X115400132Y-124101185D02*
X115542989Y-124315471D01*
X115542989Y-124315471D02*
X115614417Y-124601185D01*
X115614417Y-124601185D02*
X115614417Y-125172614D01*
X115614417Y-125172614D02*
X115542989Y-125315471D01*
X115542989Y-125315471D02*
X115471560Y-125386900D01*
X115471560Y-125386900D02*
X115328703Y-125458328D01*
X115328703Y-125458328D02*
X115042989Y-125458328D01*
X115042989Y-125458328D02*
X114900132Y-125386900D01*
X114900132Y-125386900D02*
X114828703Y-125315471D01*
X114828703Y-125315471D02*
X114757274Y-125172614D01*
X114757274Y-125172614D02*
X114757274Y-124815471D01*
X114757274Y-124815471D02*
X114828703Y-124672614D01*
X114828703Y-124672614D02*
X114900132Y-124601185D01*
X114900132Y-124601185D02*
X115042989Y-124529757D01*
X115042989Y-124529757D02*
X115328703Y-124529757D01*
X115328703Y-124529757D02*
X115471560Y-124601185D01*
X115471560Y-124601185D02*
X115542989Y-124672614D01*
X115542989Y-124672614D02*
X115614417Y-124815471D01*
X113042989Y-125386900D02*
X112900132Y-125458328D01*
X112900132Y-125458328D02*
X112614418Y-125458328D01*
X112614418Y-125458328D02*
X112471561Y-125386900D01*
X112471561Y-125386900D02*
X112400132Y-125244042D01*
X112400132Y-125244042D02*
X112400132Y-125172614D01*
X112400132Y-125172614D02*
X112471561Y-125029757D01*
X112471561Y-125029757D02*
X112614418Y-124958328D01*
X112614418Y-124958328D02*
X112828704Y-124958328D01*
X112828704Y-124958328D02*
X112971561Y-124886900D01*
X112971561Y-124886900D02*
X113042989Y-124744042D01*
X113042989Y-124744042D02*
X113042989Y-124672614D01*
X113042989Y-124672614D02*
X112971561Y-124529757D01*
X112971561Y-124529757D02*
X112828704Y-124458328D01*
X112828704Y-124458328D02*
X112614418Y-124458328D01*
X112614418Y-124458328D02*
X112471561Y-124529757D01*
X111185846Y-125386900D02*
X111328703Y-125458328D01*
X111328703Y-125458328D02*
X111614418Y-125458328D01*
X111614418Y-125458328D02*
X111757275Y-125386900D01*
X111757275Y-125386900D02*
X111828703Y-125244042D01*
X111828703Y-125244042D02*
X111828703Y-124672614D01*
X111828703Y-124672614D02*
X111757275Y-124529757D01*
X111757275Y-124529757D02*
X111614418Y-124458328D01*
X111614418Y-124458328D02*
X111328703Y-124458328D01*
X111328703Y-124458328D02*
X111185846Y-124529757D01*
X111185846Y-124529757D02*
X111114418Y-124672614D01*
X111114418Y-124672614D02*
X111114418Y-124815471D01*
X111114418Y-124815471D02*
X111828703Y-124958328D01*
X110471561Y-125458328D02*
X110471561Y-124458328D01*
X110471561Y-124601185D02*
X110400132Y-124529757D01*
X110400132Y-124529757D02*
X110257275Y-124458328D01*
X110257275Y-124458328D02*
X110042989Y-124458328D01*
X110042989Y-124458328D02*
X109900132Y-124529757D01*
X109900132Y-124529757D02*
X109828704Y-124672614D01*
X109828704Y-124672614D02*
X109828704Y-125458328D01*
X109828704Y-124672614D02*
X109757275Y-124529757D01*
X109757275Y-124529757D02*
X109614418Y-124458328D01*
X109614418Y-124458328D02*
X109400132Y-124458328D01*
X109400132Y-124458328D02*
X109257275Y-124529757D01*
X109257275Y-124529757D02*
X109185846Y-124672614D01*
X109185846Y-124672614D02*
X109185846Y-125458328D01*
X107900132Y-125386900D02*
X108042989Y-125458328D01*
X108042989Y-125458328D02*
X108328704Y-125458328D01*
X108328704Y-125458328D02*
X108471561Y-125386900D01*
X108471561Y-125386900D02*
X108542989Y-125244042D01*
X108542989Y-125244042D02*
X108542989Y-124672614D01*
X108542989Y-124672614D02*
X108471561Y-124529757D01*
X108471561Y-124529757D02*
X108328704Y-124458328D01*
X108328704Y-124458328D02*
X108042989Y-124458328D01*
X108042989Y-124458328D02*
X107900132Y-124529757D01*
X107900132Y-124529757D02*
X107828704Y-124672614D01*
X107828704Y-124672614D02*
X107828704Y-124815471D01*
X107828704Y-124815471D02*
X108542989Y-124958328D01*
X107257275Y-125386900D02*
X107114418Y-125458328D01*
X107114418Y-125458328D02*
X106828704Y-125458328D01*
X106828704Y-125458328D02*
X106685847Y-125386900D01*
X106685847Y-125386900D02*
X106614418Y-125244042D01*
X106614418Y-125244042D02*
X106614418Y-125172614D01*
X106614418Y-125172614D02*
X106685847Y-125029757D01*
X106685847Y-125029757D02*
X106828704Y-124958328D01*
X106828704Y-124958328D02*
X107042990Y-124958328D01*
X107042990Y-124958328D02*
X107185847Y-124886900D01*
X107185847Y-124886900D02*
X107257275Y-124744042D01*
X107257275Y-124744042D02*
X107257275Y-124672614D01*
X107257275Y-124672614D02*
X107185847Y-124529757D01*
X107185847Y-124529757D02*
X107042990Y-124458328D01*
X107042990Y-124458328D02*
X106828704Y-124458328D01*
X106828704Y-124458328D02*
X106685847Y-124529757D01*
X106185846Y-124458328D02*
X105614418Y-124458328D01*
X105971561Y-123958328D02*
X105971561Y-125244042D01*
X105971561Y-125244042D02*
X105900132Y-125386900D01*
X105900132Y-125386900D02*
X105757275Y-125458328D01*
X105757275Y-125458328D02*
X105614418Y-125458328D01*
X104542989Y-125386900D02*
X104685846Y-125458328D01*
X104685846Y-125458328D02*
X104971561Y-125458328D01*
X104971561Y-125458328D02*
X105114418Y-125386900D01*
X105114418Y-125386900D02*
X105185846Y-125244042D01*
X105185846Y-125244042D02*
X105185846Y-124672614D01*
X105185846Y-124672614D02*
X105114418Y-124529757D01*
X105114418Y-124529757D02*
X104971561Y-124458328D01*
X104971561Y-124458328D02*
X104685846Y-124458328D01*
X104685846Y-124458328D02*
X104542989Y-124529757D01*
X104542989Y-124529757D02*
X104471561Y-124672614D01*
X104471561Y-124672614D02*
X104471561Y-124815471D01*
X104471561Y-124815471D02*
X105185846Y-124958328D01*
X103828704Y-125458328D02*
X103828704Y-124458328D01*
X103828704Y-124744042D02*
X103757275Y-124601185D01*
X103757275Y-124601185D02*
X103685847Y-124529757D01*
X103685847Y-124529757D02*
X103542989Y-124458328D01*
X103542989Y-124458328D02*
X103400132Y-124458328D01*
X101542990Y-124601185D02*
X101685847Y-124529757D01*
X101685847Y-124529757D02*
X101757276Y-124458328D01*
X101757276Y-124458328D02*
X101828704Y-124315471D01*
X101828704Y-124315471D02*
X101828704Y-124244042D01*
X101828704Y-124244042D02*
X101757276Y-124101185D01*
X101757276Y-124101185D02*
X101685847Y-124029757D01*
X101685847Y-124029757D02*
X101542990Y-123958328D01*
X101542990Y-123958328D02*
X101257276Y-123958328D01*
X101257276Y-123958328D02*
X101114419Y-124029757D01*
X101114419Y-124029757D02*
X101042990Y-124101185D01*
X101042990Y-124101185D02*
X100971561Y-124244042D01*
X100971561Y-124244042D02*
X100971561Y-124315471D01*
X100971561Y-124315471D02*
X101042990Y-124458328D01*
X101042990Y-124458328D02*
X101114419Y-124529757D01*
X101114419Y-124529757D02*
X101257276Y-124601185D01*
X101257276Y-124601185D02*
X101542990Y-124601185D01*
X101542990Y-124601185D02*
X101685847Y-124672614D01*
X101685847Y-124672614D02*
X101757276Y-124744042D01*
X101757276Y-124744042D02*
X101828704Y-124886900D01*
X101828704Y-124886900D02*
X101828704Y-125172614D01*
X101828704Y-125172614D02*
X101757276Y-125315471D01*
X101757276Y-125315471D02*
X101685847Y-125386900D01*
X101685847Y-125386900D02*
X101542990Y-125458328D01*
X101542990Y-125458328D02*
X101257276Y-125458328D01*
X101257276Y-125458328D02*
X101114419Y-125386900D01*
X101114419Y-125386900D02*
X101042990Y-125315471D01*
X101042990Y-125315471D02*
X100971561Y-125172614D01*
X100971561Y-125172614D02*
X100971561Y-124886900D01*
X100971561Y-124886900D02*
X101042990Y-124744042D01*
X101042990Y-124744042D02*
X101114419Y-124672614D01*
X101114419Y-124672614D02*
X101257276Y-124601185D01*
D10*
X99000000Y-123000000D02*
X123000000Y-123000000D01*
X123000000Y-125500000D01*
X99000000Y-125500000D01*
X99000000Y-123000000D01*
D11*
D12*
X121542989Y-128458328D02*
X121542989Y-126958328D01*
X121542989Y-127529757D02*
X121400132Y-127458328D01*
X121400132Y-127458328D02*
X121114417Y-127458328D01*
X121114417Y-127458328D02*
X120971560Y-127529757D01*
X120971560Y-127529757D02*
X120900132Y-127601185D01*
X120900132Y-127601185D02*
X120828703Y-127744042D01*
X120828703Y-127744042D02*
X120828703Y-128172614D01*
X120828703Y-128172614D02*
X120900132Y-128315471D01*
X120900132Y-128315471D02*
X120971560Y-128386900D01*
X120971560Y-128386900D02*
X121114417Y-128458328D01*
X121114417Y-128458328D02*
X121400132Y-128458328D01*
X121400132Y-128458328D02*
X121542989Y-128386900D01*
X120328703Y-127458328D02*
X119971560Y-128458328D01*
X119614417Y-127458328D02*
X119971560Y-128458328D01*
X119971560Y-128458328D02*
X120114417Y-128815471D01*
X120114417Y-128815471D02*
X120185846Y-128886900D01*
X120185846Y-128886900D02*
X120328703Y-128958328D01*
X119042989Y-128315471D02*
X118971560Y-128386900D01*
X118971560Y-128386900D02*
X119042989Y-128458328D01*
X119042989Y-128458328D02*
X119114417Y-128386900D01*
X119114417Y-128386900D02*
X119042989Y-128315471D01*
X119042989Y-128315471D02*
X119042989Y-128458328D01*
X119042989Y-127529757D02*
X118971560Y-127601185D01*
X118971560Y-127601185D02*
X119042989Y-127672614D01*
X119042989Y-127672614D02*
X119114417Y-127601185D01*
X119114417Y-127601185D02*
X119042989Y-127529757D01*
X119042989Y-127529757D02*
X119042989Y-127672614D01*
X116614417Y-128386900D02*
X116757274Y-128458328D01*
X116757274Y-128458328D02*
X117042989Y-128458328D01*
X117042989Y-128458328D02*
X117185846Y-128386900D01*
X117185846Y-128386900D02*
X117257274Y-128244042D01*
X117257274Y-128244042D02*
X117257274Y-127672614D01*
X117257274Y-127672614D02*
X117185846Y-127529757D01*
X117185846Y-127529757D02*
X117042989Y-127458328D01*
X117042989Y-127458328D02*
X116757274Y-127458328D01*
X116757274Y-127458328D02*
X116614417Y-127529757D01*
X116614417Y-127529757D02*
X116542989Y-127672614D01*
X116542989Y-127672614D02*
X116542989Y-127815471D01*
X116542989Y-127815471D02*
X117257274Y-127958328D01*
X115900132Y-128458328D02*
X115900132Y-126958328D01*
X115757275Y-127886900D02*
X115328703Y-128458328D01*
X115328703Y-127458328D02*
X115900132Y-128029757D01*
X114042989Y-128458328D02*
X114042989Y-127672614D01*
X114042989Y-127672614D02*
X114114417Y-127529757D01*
X114114417Y-127529757D02*
X114257274Y-127458328D01*
X114257274Y-127458328D02*
X114542989Y-127458328D01*
X114542989Y-127458328D02*
X114685846Y-127529757D01*
X114042989Y-128386900D02*
X114185846Y-128458328D01*
X114185846Y-128458328D02*
X114542989Y-128458328D01*
X114542989Y-128458328D02*
X114685846Y-128386900D01*
X114685846Y-128386900D02*
X114757274Y-128244042D01*
X114757274Y-128244042D02*
X114757274Y-128101185D01*
X114757274Y-128101185D02*
X114685846Y-127958328D01*
X114685846Y-127958328D02*
X114542989Y-127886900D01*
X114542989Y-127886900D02*
X114185846Y-127886900D01*
X114185846Y-127886900D02*
X114042989Y-127815471D01*
X110971560Y-128458328D02*
X111042989Y-128458328D01*
X111042989Y-128458328D02*
X111185846Y-128386900D01*
X111185846Y-128386900D02*
X111400131Y-128172614D01*
X111400131Y-128172614D02*
X111757274Y-127744042D01*
X111757274Y-127744042D02*
X111900131Y-127529757D01*
X111900131Y-127529757D02*
X111971560Y-127315471D01*
X111971560Y-127315471D02*
X111971560Y-127172614D01*
X111971560Y-127172614D02*
X111900131Y-127029757D01*
X111900131Y-127029757D02*
X111757274Y-126958328D01*
X111757274Y-126958328D02*
X111685846Y-126958328D01*
X111685846Y-126958328D02*
X111542989Y-127029757D01*
X111542989Y-127029757D02*
X111471560Y-127172614D01*
X111471560Y-127172614D02*
X111471560Y-127244042D01*
X111471560Y-127244042D02*
X111542989Y-127386900D01*
X111542989Y-127386900D02*
X111614417Y-127458328D01*
X111614417Y-127458328D02*
X112042989Y-127744042D01*
X112042989Y-127744042D02*
X112114417Y-127815471D01*
X112114417Y-127815471D02*
X112185846Y-127958328D01*
X112185846Y-127958328D02*
X112185846Y-128172614D01*
X112185846Y-128172614D02*
X112114417Y-128315471D01*
X112114417Y-128315471D02*
X112042989Y-128386900D01*
X112042989Y-128386900D02*
X111900131Y-128458328D01*
X111900131Y-128458328D02*
X111685846Y-128458328D01*
X111685846Y-128458328D02*
X111542989Y-128386900D01*
X111542989Y-128386900D02*
X111471560Y-128315471D01*
X111471560Y-128315471D02*
X111257274Y-128029757D01*
X111257274Y-128029757D02*
X111185846Y-127815471D01*
X111185846Y-127815471D02*
X111185846Y-127672614D01*
X109328703Y-127458328D02*
X108542989Y-127458328D01*
X108542989Y-127458328D02*
X109328703Y-128458328D01*
X109328703Y-128458328D02*
X108542989Y-128458328D01*
X107400131Y-128386900D02*
X107542988Y-128458328D01*
X107542988Y-128458328D02*
X107828703Y-128458328D01*
X107828703Y-128458328D02*
X107971560Y-128386900D01*
X107971560Y-128386900D02*
X108042988Y-128244042D01*
X108042988Y-128244042D02*
X108042988Y-127672614D01*
X108042988Y-127672614D02*
X107971560Y-127529757D01*
X107971560Y-127529757D02*
X107828703Y-127458328D01*
X107828703Y-127458328D02*
X107542988Y-127458328D01*
X107542988Y-127458328D02*
X107400131Y-127529757D01*
X107400131Y-127529757D02*
X107328703Y-127672614D01*
X107328703Y-127672614D02*
X107328703Y-127815471D01*
X107328703Y-127815471D02*
X108042988Y-127958328D01*
X106900131Y-127458328D02*
X106328703Y-127458328D01*
X106685846Y-128458328D02*
X106685846Y-127172614D01*
X106685846Y-127172614D02*
X106614417Y-127029757D01*
X106614417Y-127029757D02*
X106471560Y-126958328D01*
X106471560Y-126958328D02*
X106328703Y-126958328D01*
X105185846Y-128458328D02*
X105185846Y-127672614D01*
X105185846Y-127672614D02*
X105257274Y-127529757D01*
X105257274Y-127529757D02*
X105400131Y-127458328D01*
X105400131Y-127458328D02*
X105685846Y-127458328D01*
X105685846Y-127458328D02*
X105828703Y-127529757D01*
X105185846Y-128386900D02*
X105328703Y-128458328D01*
X105328703Y-128458328D02*
X105685846Y-128458328D01*
X105685846Y-128458328D02*
X105828703Y-128386900D01*
X105828703Y-128386900D02*
X105900131Y-128244042D01*
X105900131Y-128244042D02*
X105900131Y-128101185D01*
X105900131Y-128101185D02*
X105828703Y-127958328D01*
X105828703Y-127958328D02*
X105685846Y-127886900D01*
X105685846Y-127886900D02*
X105328703Y-127886900D01*
X105328703Y-127886900D02*
X105185846Y-127815471D01*
X104471560Y-127458328D02*
X104471560Y-128458328D01*
X104471560Y-127601185D02*
X104400131Y-127529757D01*
X104400131Y-127529757D02*
X104257274Y-127458328D01*
X104257274Y-127458328D02*
X104042988Y-127458328D01*
X104042988Y-127458328D02*
X103900131Y-127529757D01*
X103900131Y-127529757D02*
X103828703Y-127672614D01*
X103828703Y-127672614D02*
X103828703Y-128458328D01*
X103257274Y-127458328D02*
X102900131Y-128458328D01*
X102542988Y-127458328D02*
X102900131Y-128458328D01*
X102900131Y-128458328D02*
X103042988Y-128815471D01*
X103042988Y-128815471D02*
X103114417Y-128886900D01*
X103114417Y-128886900D02*
X103257274Y-128958328D01*
X101328703Y-128458328D02*
X101328703Y-127672614D01*
X101328703Y-127672614D02*
X101400131Y-127529757D01*
X101400131Y-127529757D02*
X101542988Y-127458328D01*
X101542988Y-127458328D02*
X101828703Y-127458328D01*
X101828703Y-127458328D02*
X101971560Y-127529757D01*
X101328703Y-128386900D02*
X101471560Y-128458328D01*
X101471560Y-128458328D02*
X101828703Y-128458328D01*
X101828703Y-128458328D02*
X101971560Y-128386900D01*
X101971560Y-128386900D02*
X102042988Y-128244042D01*
X102042988Y-128244042D02*
X102042988Y-128101185D01*
X102042988Y-128101185D02*
X101971560Y-127958328D01*
X101971560Y-127958328D02*
X101828703Y-127886900D01*
X101828703Y-127886900D02*
X101471560Y-127886900D01*
X101471560Y-127886900D02*
X101328703Y-127815471D01*
D10*
X99000000Y-126000000D02*
X123000000Y-126000000D01*
X123000000Y-130500000D01*
X99000000Y-130500000D01*
X99000000Y-126000000D01*
D13*
%TO.P,RV1,1,1*%
%TO.N,VCC*%
X143150000Y-124000000D03*
%TO.P,RV1,2,2*%
%TO.N,Net-(U1A--)*%
X140610000Y-126540000D03*
%TO.P,RV1,3,3*%
%TO.N,GND*%
X143150000Y-129080000D03*
%TD*%
D14*
%TO.P,R2,1*%
%TO.N,VCC*%
X138380000Y-104500000D03*
%TO.P,R2,2*%
%TO.N,Net-(D1-A)*%
X146000000Y-104500000D03*
%TD*%
%TO.P,R3,1*%
%TO.N,VCC*%
X138880000Y-109000000D03*
%TO.P,R3,2*%
%TO.N,Net-(D2-A)*%
X146500000Y-109000000D03*
%TD*%
D15*
%TO.P,J1,1,Pin_1*%
%TO.N,A_OUT*%
X152125000Y-113500000D03*
D16*
%TO.P,J1,2,Pin_2*%
%TO.N,GND*%
X152125000Y-114500000D03*
%TD*%
D17*
%TO.P,D1,1,K*%
%TO.N,D_OUT*%
X154230000Y-88500000D03*
D18*
%TO.P,D1,2,A*%
%TO.N,Net-(D1-A)*%
X156770000Y-88500000D03*
%TD*%
D19*
%TO.P,C2,1*%
%TO.N,D_OUT*%
X106500000Y-100500000D03*
D20*
%TO.P,C2,2*%
%TO.N,GND*%
X124500000Y-100500000D03*
%TD*%
D21*
%TO.P,U1,1*%
%TO.N,D_OUT*%
X126190000Y-113190000D03*
D22*
%TO.P,U1,2,-*%
%TO.N,Net-(U1A--)*%
X126190000Y-115730000D03*
%TO.P,U1,3,+*%
%TO.N,A_OUT*%
X126190000Y-118270000D03*
%TO.P,U1,4*%
%TO.N,N/C*%
X126190000Y-120810000D03*
%TO.P,U1,5*%
X133810000Y-120810000D03*
%TO.P,U1,6*%
X133810000Y-118270000D03*
%TO.P,U1,7*%
X133810000Y-115730000D03*
%TO.P,U1,8*%
X133810000Y-113190000D03*
%TD*%
D14*
%TO.P,R1,1*%
%TO.N,VCC*%
X138690000Y-99850000D03*
%TO.P,R1,2*%
%TO.N,A_OUT*%
X146310000Y-99850000D03*
%TD*%
D17*
%TO.P,D2,1,K*%
%TO.N,GND*%
X142960000Y-93500000D03*
D18*
%TO.P,D2,2,A*%
%TO.N,Net-(D2-A)*%
X145500000Y-93500000D03*
%TD*%
D19*
%TO.P,C1,1*%
%TO.N,A_OUT*%
X106500000Y-91892500D03*
D20*
%TO.P,C1,2*%
%TO.N,GND*%
X124500000Y-91892500D03*
%TD*%
D23*
%TO.N,A_OUT*%
X99000000Y-116000000D02*
X101500000Y-118500000D01*
X147401000Y-105080314D02*
X147401000Y-104797470D01*
X147061000Y-100601000D02*
X147061000Y-101561000D01*
X101500000Y-118500000D02*
X101730000Y-118270000D01*
X145702530Y-103099000D02*
X145419686Y-103099000D01*
X148849235Y-103349235D02*
X152125000Y-106625000D01*
X147061000Y-101561000D02*
X147150765Y-101650765D01*
X152125000Y-113374000D02*
X152591405Y-113374000D01*
X99107500Y-91892500D02*
X99000000Y-92000000D01*
X146310000Y-99850000D02*
X147061000Y-100601000D01*
X147401000Y-104797470D02*
X148849235Y-103349235D01*
X153251000Y-129249000D02*
X151989000Y-130511000D01*
X144599000Y-105080314D02*
X145419686Y-105901000D01*
X145419686Y-105901000D02*
X146580314Y-105901000D01*
X151989000Y-130511000D02*
X138431000Y-130511000D01*
X152125000Y-106625000D02*
X152125000Y-113374000D01*
X99000000Y-92000000D02*
X99000000Y-116000000D01*
X153251000Y-114033595D02*
X153251000Y-129249000D01*
X146580314Y-105901000D02*
X147401000Y-105080314D01*
X144599000Y-103919686D02*
X144599000Y-105080314D01*
X147150765Y-101650765D02*
X145702530Y-103099000D01*
X145419686Y-103099000D02*
X144599000Y-103919686D01*
X101730000Y-118270000D02*
X126190000Y-118270000D01*
X138431000Y-130511000D02*
X126190000Y-118270000D01*
X152591405Y-113374000D02*
X153251000Y-114033595D01*
X106500000Y-91892500D02*
X99107500Y-91892500D01*
%TO.N,GND*%
X144561000Y-91899000D02*
X146163156Y-91899000D01*
X143150000Y-129000000D02*
X145286877Y-129000000D01*
X136392500Y-91892500D02*
X138250000Y-93750000D01*
X145286877Y-129000000D02*
X152050000Y-122236877D01*
X141092000Y-101127784D02*
X141092000Y-103815060D01*
X146163156Y-91899000D02*
X147101000Y-92836844D01*
X152050000Y-122236877D02*
X152050000Y-114626000D01*
X151000000Y-115500000D02*
X151874000Y-114626000D01*
X150924000Y-111442686D02*
X150924000Y-115424000D01*
X142960000Y-93500000D02*
X144561000Y-91899000D01*
X138250000Y-93750000D02*
X138340000Y-93840000D01*
X144875940Y-107599000D02*
X147080314Y-107599000D01*
X147080314Y-107599000D02*
X150924000Y-111442686D01*
X147101000Y-92836844D02*
X147101000Y-95118784D01*
X151874000Y-114626000D02*
X152050000Y-114626000D01*
X150924000Y-115424000D02*
X151000000Y-115500000D01*
X141092000Y-103815060D02*
X144875940Y-107599000D01*
X147101000Y-95118784D02*
X141092000Y-101127784D01*
X124500000Y-91892500D02*
X124500000Y-100500000D01*
X124500000Y-91892500D02*
X136392500Y-91892500D01*
X138500000Y-93500000D02*
X138250000Y-93750000D01*
X142960000Y-93500000D02*
X138500000Y-93500000D01*
%TO.N,D_OUT*%
X126190000Y-113190000D02*
X115190000Y-113190000D01*
X113000000Y-86000000D02*
X148500000Y-86000000D01*
X101500000Y-112500000D02*
X102190000Y-113190000D01*
X154230000Y-88500000D02*
X151000000Y-88500000D01*
X106500000Y-100500000D02*
X101500000Y-100500000D01*
X102190000Y-113190000D02*
X126190000Y-113190000D01*
X115190000Y-113190000D02*
X113000000Y-111000000D01*
X101500000Y-100500000D02*
X101500000Y-112500000D01*
X151000000Y-88500000D02*
X148500000Y-86000000D01*
X113000000Y-111000000D02*
X113000000Y-86000000D01*
%TO.N,Net-(D1-A)*%
X156770000Y-93730000D02*
X146000000Y-104500000D01*
X156770000Y-88500000D02*
X156770000Y-93730000D01*
%TO.N,Net-(D2-A)*%
X141899000Y-95101000D02*
X144561000Y-95101000D01*
X139891000Y-100630314D02*
X140091000Y-100430314D01*
X140080999Y-104502529D02*
X139891000Y-104312530D01*
X140281000Y-108702530D02*
X140281000Y-108419686D01*
X140081000Y-108219686D02*
X140080999Y-104502529D01*
X146500000Y-109000000D02*
X140578470Y-109000000D01*
X139270314Y-98449000D02*
X138551000Y-98449000D01*
X138551000Y-98449000D02*
X141899000Y-95101000D01*
X140578470Y-109000000D02*
X140281000Y-108702530D01*
X140281000Y-108419686D02*
X140081000Y-108219686D01*
X140091000Y-99269686D02*
X139270314Y-98449000D01*
X139891000Y-104312530D02*
X139891000Y-100630314D01*
X140091000Y-100430314D02*
X140091000Y-99269686D01*
X144561000Y-94439000D02*
X145500000Y-93500000D01*
X144561000Y-95101000D02*
X144561000Y-94439000D01*
%TO.N,VCC*%
X143150000Y-113270000D02*
X138880000Y-109000000D01*
X143150000Y-124000000D02*
X143150000Y-113270000D01*
X138880000Y-105000000D02*
X138380000Y-104500000D01*
X138690000Y-99850000D02*
X138690000Y-104190000D01*
X138880000Y-109000000D02*
X138880000Y-105000000D01*
X138690000Y-104190000D02*
X138380000Y-104500000D01*
%TO.N,Net-(U1A--)*%
X126770000Y-116295000D02*
X126755000Y-116295000D01*
X127255000Y-115810000D02*
X126770000Y-116295000D01*
X126190000Y-115375000D02*
X126255000Y-115310000D01*
X126190000Y-115730000D02*
X136960000Y-126500000D01*
X136960000Y-126500000D02*
X145650000Y-126500000D01*
X126755000Y-116295000D02*
X126190000Y-115730000D01*
X126190000Y-115375000D02*
X126190000Y-115730000D01*
%TD*%
%TA.AperFunction,NonConductor*%
G36*
X144471039Y-96121185D02*
G01*
X144516794Y-96173989D01*
X144526738Y-96243147D01*
X144497713Y-96306703D01*
X144491681Y-96313181D01*
X141303181Y-99501681D01*
X141241858Y-99535166D01*
X141172166Y-99530182D01*
X141116233Y-99488310D01*
X141091816Y-99422846D01*
X141091500Y-99414000D01*
X141091500Y-99171142D01*
X141091499Y-99171140D01*
X141053052Y-98977856D01*
X141053050Y-98977849D01*
X141047053Y-98963372D01*
X141047049Y-98963362D01*
X141030297Y-98922915D01*
X140977633Y-98795775D01*
X140977632Y-98795772D01*
X140977630Y-98795769D01*
X140977628Y-98795765D01*
X140868140Y-98631905D01*
X140868139Y-98631904D01*
X140728782Y-98492547D01*
X140728781Y-98492546D01*
X140413258Y-98177023D01*
X140379773Y-98115700D01*
X140384757Y-98046008D01*
X140413258Y-98001661D01*
X142277101Y-96137819D01*
X142338424Y-96104334D01*
X142364782Y-96101500D01*
X144404000Y-96101500D01*
X144471039Y-96121185D01*
G37*
%TD.AperFunction*%
%TA.AperFunction,NonConductor*%
G36*
X141286702Y-105425128D02*
G01*
X141293180Y-105431160D01*
X143649838Y-107787819D01*
X143683323Y-107849142D01*
X143678339Y-107918834D01*
X143636467Y-107974767D01*
X143571003Y-107999184D01*
X143562157Y-107999500D01*
X141269811Y-107999500D01*
X141262193Y-107997263D01*
X141254357Y-107998533D01*
X141229149Y-107987560D01*
X141202772Y-107979815D01*
X141195941Y-107973105D01*
X141190294Y-107970647D01*
X141166709Y-107944391D01*
X141102397Y-107848141D01*
X141081519Y-107781463D01*
X141081499Y-107779250D01*
X141081499Y-105518841D01*
X141101184Y-105451802D01*
X141153988Y-105406047D01*
X141223146Y-105396103D01*
X141286702Y-105425128D01*
G37*
%TD.AperFunction*%
%TA.AperFunction,NonConductor*%
G36*
X148892569Y-104823335D02*
G01*
X148936916Y-104851836D01*
X151088181Y-107003101D01*
X151121666Y-107064424D01*
X151124500Y-107090782D01*
X151124500Y-109928904D01*
X151104815Y-109995943D01*
X151052011Y-110041698D01*
X150982853Y-110051642D01*
X150919297Y-110022617D01*
X150912819Y-110016585D01*
X147861793Y-106965559D01*
X147861773Y-106965537D01*
X147718099Y-106821863D01*
X147718095Y-106821860D01*
X147554234Y-106712371D01*
X147554225Y-106712366D01*
X147488389Y-106685096D01*
X147463793Y-106674908D01*
X147409391Y-106631068D01*
X147387326Y-106564774D01*
X147404605Y-106497075D01*
X147423566Y-106472667D01*
X147563070Y-106333164D01*
X148178139Y-105718096D01*
X148200854Y-105684101D01*
X148287632Y-105554228D01*
X148356005Y-105389160D01*
X148363051Y-105372150D01*
X148386416Y-105254688D01*
X148386948Y-105252454D01*
X148403181Y-105224057D01*
X148418343Y-105195073D01*
X148419837Y-105193552D01*
X148761554Y-104851836D01*
X148822877Y-104818351D01*
X148892569Y-104823335D01*
G37*
%TD.AperFunction*%
%TA.AperFunction,NonConductor*%
G36*
X148101257Y-87020185D02*
G01*
X148121899Y-87036819D01*
X150219735Y-89134655D01*
X150219764Y-89134686D01*
X150362214Y-89277136D01*
X150362218Y-89277139D01*
X150526079Y-89386628D01*
X150526092Y-89386635D01*
X150654833Y-89439961D01*
X150673935Y-89447873D01*
X150708164Y-89462051D01*
X150804812Y-89481275D01*
X150853135Y-89490887D01*
X150901458Y-89500500D01*
X150901459Y-89500500D01*
X150901460Y-89500500D01*
X151098540Y-89500500D01*
X152747209Y-89500500D01*
X152814248Y-89520185D01*
X152860003Y-89572989D01*
X152863391Y-89581167D01*
X152886202Y-89642328D01*
X152886206Y-89642335D01*
X152972452Y-89757544D01*
X152972455Y-89757547D01*
X153087664Y-89843793D01*
X153087671Y-89843797D01*
X153222517Y-89894091D01*
X153222516Y-89894091D01*
X153229444Y-89894835D01*
X153282127Y-89900500D01*
X155177872Y-89900499D01*
X155237483Y-89894091D01*
X155372331Y-89843796D01*
X155487546Y-89757546D01*
X155511525Y-89725513D01*
X155546234Y-89679150D01*
X155602168Y-89637279D01*
X155671859Y-89632295D01*
X155733182Y-89665781D01*
X155766666Y-89727104D01*
X155769500Y-89753461D01*
X155769500Y-93264218D01*
X155749815Y-93331257D01*
X155733181Y-93351899D01*
X148273181Y-100811899D01*
X148211858Y-100845384D01*
X148142166Y-100840400D01*
X148086233Y-100798528D01*
X148061816Y-100733064D01*
X148061500Y-100724218D01*
X148061500Y-100502456D01*
X148039560Y-100392162D01*
X148023051Y-100309164D01*
X147959774Y-100156400D01*
X147947632Y-100127086D01*
X147880146Y-100026086D01*
X147838140Y-99963219D01*
X147819402Y-99944481D01*
X147698782Y-99823861D01*
X147698781Y-99823860D01*
X147597781Y-99722860D01*
X147516419Y-99641498D01*
X147482934Y-99580175D01*
X147481626Y-99573213D01*
X147480940Y-99568882D01*
X147475850Y-99553217D01*
X147422547Y-99389168D01*
X147422545Y-99389165D01*
X147422545Y-99389163D01*
X147336759Y-99220800D01*
X147335272Y-99218753D01*
X147225690Y-99067927D01*
X147092073Y-98934310D01*
X146939199Y-98823240D01*
X146913214Y-98810000D01*
X146770836Y-98737454D01*
X146591118Y-98679059D01*
X146404486Y-98649500D01*
X146404481Y-98649500D01*
X146215519Y-98649500D01*
X146215514Y-98649500D01*
X146028881Y-98679059D01*
X145849163Y-98737454D01*
X145680800Y-98823240D01*
X145623066Y-98865187D01*
X145527927Y-98934310D01*
X145527925Y-98934312D01*
X145527924Y-98934312D01*
X145394312Y-99067924D01*
X145394312Y-99067925D01*
X145394310Y-99067927D01*
X145384559Y-99081348D01*
X145283240Y-99220800D01*
X145197454Y-99389163D01*
X145139059Y-99568881D01*
X145109500Y-99755513D01*
X145109500Y-99944486D01*
X145139059Y-100131118D01*
X145197454Y-100310836D01*
X145283239Y-100479198D01*
X145283240Y-100479199D01*
X145394310Y-100632073D01*
X145527927Y-100765690D01*
X145680801Y-100876760D01*
X145849168Y-100962547D01*
X145974819Y-101003373D01*
X145995219Y-101017322D01*
X146017703Y-101027591D01*
X146023556Y-101036699D01*
X146032494Y-101042811D01*
X146042115Y-101065577D01*
X146055477Y-101086369D01*
X146057836Y-101102777D01*
X146059692Y-101107169D01*
X146060500Y-101121304D01*
X146060500Y-101274746D01*
X146040815Y-101341785D01*
X146024181Y-101362427D01*
X145306502Y-102080105D01*
X145245179Y-102113590D01*
X145243013Y-102114041D01*
X145127852Y-102136948D01*
X145127845Y-102136950D01*
X145074520Y-102159037D01*
X145074520Y-102159038D01*
X145044664Y-102171405D01*
X144945775Y-102212366D01*
X144945765Y-102212371D01*
X144781904Y-102321860D01*
X144781900Y-102321863D01*
X143961220Y-103142545D01*
X143961218Y-103142547D01*
X143891538Y-103212226D01*
X143821859Y-103281905D01*
X143712371Y-103445766D01*
X143712364Y-103445779D01*
X143674040Y-103538302D01*
X143674028Y-103538332D01*
X143673140Y-103540478D01*
X143636949Y-103627850D01*
X143634319Y-103641071D01*
X143632400Y-103650718D01*
X143632399Y-103650721D01*
X143598500Y-103821142D01*
X143598500Y-104607277D01*
X143578815Y-104674316D01*
X143526011Y-104720071D01*
X143456853Y-104730015D01*
X143393297Y-104700990D01*
X143386819Y-104694958D01*
X142128819Y-103436958D01*
X142095334Y-103375635D01*
X142092500Y-103349277D01*
X142092500Y-101593566D01*
X142112185Y-101526527D01*
X142128819Y-101505885D01*
X145002800Y-98631905D01*
X147878139Y-95756566D01*
X147890022Y-95738782D01*
X147987632Y-95592698D01*
X148063051Y-95410619D01*
X148066589Y-95392835D01*
X148101500Y-95217324D01*
X148101500Y-95020244D01*
X148101500Y-92738303D01*
X148101500Y-92738300D01*
X148075865Y-92609430D01*
X148075865Y-92609425D01*
X148063053Y-92545016D01*
X148063052Y-92545009D01*
X147987632Y-92362930D01*
X147987631Y-92362929D01*
X147987628Y-92362923D01*
X147878140Y-92199063D01*
X147878137Y-92199059D01*
X146947365Y-91268289D01*
X146947362Y-91268285D01*
X146947362Y-91268286D01*
X146940295Y-91261219D01*
X146940295Y-91261218D01*
X146800938Y-91121861D01*
X146800937Y-91121860D01*
X146800936Y-91121859D01*
X146637076Y-91012371D01*
X146637067Y-91012366D01*
X146564471Y-90982296D01*
X146508321Y-90959038D01*
X146454992Y-90936949D01*
X146454988Y-90936948D01*
X146454984Y-90936946D01*
X146358344Y-90917724D01*
X146261700Y-90898500D01*
X146261697Y-90898500D01*
X144462459Y-90898500D01*
X144462455Y-90898500D01*
X144365812Y-90917724D01*
X144269167Y-90936947D01*
X144269161Y-90936949D01*
X144215834Y-90959037D01*
X144215834Y-90959038D01*
X144170315Y-90977892D01*
X144087089Y-91012366D01*
X144087079Y-91012371D01*
X143923219Y-91121859D01*
X143853540Y-91191538D01*
X143783861Y-91261218D01*
X143783858Y-91261221D01*
X142981897Y-92063181D01*
X142920574Y-92096666D01*
X142894216Y-92099500D01*
X142012129Y-92099500D01*
X142012123Y-92099501D01*
X141952516Y-92105908D01*
X141817671Y-92156202D01*
X141817664Y-92156206D01*
X141702455Y-92242452D01*
X141702452Y-92242455D01*
X141616206Y-92357664D01*
X141616202Y-92357671D01*
X141593391Y-92418833D01*
X141551520Y-92474767D01*
X141486056Y-92499184D01*
X141477209Y-92499500D01*
X138465783Y-92499500D01*
X138398744Y-92479815D01*
X138378102Y-92463181D01*
X137176709Y-91261789D01*
X137176706Y-91261785D01*
X137176706Y-91261786D01*
X137169639Y-91254719D01*
X137169639Y-91254718D01*
X137030282Y-91115361D01*
X137030281Y-91115360D01*
X137030280Y-91115359D01*
X136866420Y-91005871D01*
X136866407Y-91005864D01*
X136742775Y-90954655D01*
X136742772Y-90954654D01*
X136734597Y-90951268D01*
X136684336Y-90930449D01*
X136523718Y-90898500D01*
X136493540Y-90892497D01*
X136491042Y-90892000D01*
X136491041Y-90892000D01*
X125936873Y-90892000D01*
X125869834Y-90872315D01*
X125838497Y-90843486D01*
X125781248Y-90768877D01*
X125781242Y-90768870D01*
X125623629Y-90611257D01*
X125623622Y-90611251D01*
X125446782Y-90475558D01*
X125446780Y-90475557D01*
X125446774Y-90475552D01*
X125253726Y-90364095D01*
X125253722Y-90364093D01*
X125047790Y-90278793D01*
X125047783Y-90278791D01*
X125047781Y-90278790D01*
X124832463Y-90221096D01*
X124832457Y-90221095D01*
X124832452Y-90221094D01*
X124611466Y-90192001D01*
X124611463Y-90192000D01*
X124611457Y-90192000D01*
X124388543Y-90192000D01*
X124388537Y-90192000D01*
X124388533Y-90192001D01*
X124167547Y-90221094D01*
X124167540Y-90221095D01*
X124167537Y-90221096D01*
X124030981Y-90257686D01*
X123952219Y-90278790D01*
X123952209Y-90278793D01*
X123746277Y-90364093D01*
X123746273Y-90364095D01*
X123553226Y-90475552D01*
X123553217Y-90475558D01*
X123376377Y-90611251D01*
X123376370Y-90611257D01*
X123218757Y-90768870D01*
X123218751Y-90768877D01*
X123083058Y-90945717D01*
X123083052Y-90945726D01*
X122971595Y-91138773D01*
X122971593Y-91138777D01*
X122886293Y-91344709D01*
X122886290Y-91344719D01*
X122828597Y-91560034D01*
X122828594Y-91560047D01*
X122799501Y-91781033D01*
X122799500Y-91781049D01*
X122799500Y-92003950D01*
X122799501Y-92003966D01*
X122828594Y-92224952D01*
X122828595Y-92224957D01*
X122828596Y-92224963D01*
X122864155Y-92357671D01*
X122886290Y-92440280D01*
X122886293Y-92440290D01*
X122971593Y-92646222D01*
X122971595Y-92646226D01*
X123083052Y-92839274D01*
X123083057Y-92839280D01*
X123083058Y-92839282D01*
X123218751Y-93016122D01*
X123218757Y-93016129D01*
X123376368Y-93173740D01*
X123376373Y-93173744D01*
X123376376Y-93173747D01*
X123450986Y-93230996D01*
X123492189Y-93287423D01*
X123499500Y-93329372D01*
X123499500Y-99063126D01*
X123479815Y-99130165D01*
X123450987Y-99161502D01*
X123376370Y-99218757D01*
X123218757Y-99376370D01*
X123218751Y-99376377D01*
X123083058Y-99553217D01*
X123083052Y-99553226D01*
X122971595Y-99746273D01*
X122971593Y-99746277D01*
X122886293Y-99952209D01*
X122886290Y-99952219D01*
X122838355Y-100131118D01*
X122828597Y-100167534D01*
X122828594Y-100167547D01*
X122799501Y-100388533D01*
X122799500Y-100388549D01*
X122799500Y-100611450D01*
X122799501Y-100611466D01*
X122828594Y-100832452D01*
X122828595Y-100832457D01*
X122828596Y-100832463D01*
X122886290Y-101047780D01*
X122886293Y-101047790D01*
X122910889Y-101107169D01*
X122971595Y-101253726D01*
X123083052Y-101446774D01*
X123083057Y-101446780D01*
X123083058Y-101446782D01*
X123218751Y-101623622D01*
X123218757Y-101623629D01*
X123376370Y-101781242D01*
X123376376Y-101781247D01*
X123553226Y-101916948D01*
X123746274Y-102028405D01*
X123952219Y-102113710D01*
X124167537Y-102171404D01*
X124388543Y-102200500D01*
X124388550Y-102200500D01*
X124611450Y-102200500D01*
X124611457Y-102200500D01*
X124832463Y-102171404D01*
X125047781Y-102113710D01*
X125253726Y-102028405D01*
X125446774Y-101916948D01*
X125623624Y-101781247D01*
X125781247Y-101623624D01*
X125916948Y-101446774D01*
X126028405Y-101253726D01*
X126113710Y-101047781D01*
X126171404Y-100832463D01*
X126200500Y-100611457D01*
X126200500Y-100388543D01*
X126171404Y-100167537D01*
X126113710Y-99952219D01*
X126028405Y-99746274D01*
X125916948Y-99553226D01*
X125873483Y-99496581D01*
X125781248Y-99376377D01*
X125781242Y-99376370D01*
X125623629Y-99218757D01*
X125549013Y-99161502D01*
X125507811Y-99105074D01*
X125500500Y-99063126D01*
X125500500Y-93329372D01*
X125520185Y-93262333D01*
X125549012Y-93230997D01*
X125623624Y-93173747D01*
X125781247Y-93016124D01*
X125838497Y-92941513D01*
X125894924Y-92900311D01*
X125936873Y-92893000D01*
X135926718Y-92893000D01*
X135993757Y-92912685D01*
X136014399Y-92929319D01*
X137616531Y-94531453D01*
X137616550Y-94531470D01*
X137702219Y-94617139D01*
X137702220Y-94617140D01*
X137866079Y-94726627D01*
X137866083Y-94726629D01*
X137866086Y-94726631D01*
X138048164Y-94802051D01*
X138241455Y-94840499D01*
X138241458Y-94840500D01*
X138241460Y-94840500D01*
X138438542Y-94840500D01*
X138438543Y-94840499D01*
X138631836Y-94802051D01*
X138813914Y-94726631D01*
X138977781Y-94617139D01*
X139058102Y-94536817D01*
X139119423Y-94503334D01*
X139145782Y-94500500D01*
X140785218Y-94500500D01*
X140852257Y-94520185D01*
X140898012Y-94572989D01*
X140907956Y-94642147D01*
X140878931Y-94705703D01*
X140872899Y-94712180D01*
X137913221Y-97671858D01*
X137913218Y-97671861D01*
X137843538Y-97741540D01*
X137773859Y-97811219D01*
X137664371Y-97975079D01*
X137664364Y-97975092D01*
X137588950Y-98157160D01*
X137588947Y-98157170D01*
X137550500Y-98350456D01*
X137550500Y-98350459D01*
X137550500Y-98547541D01*
X137550500Y-98547543D01*
X137550499Y-98547543D01*
X137588947Y-98740829D01*
X137588950Y-98740839D01*
X137664364Y-98922907D01*
X137664371Y-98922920D01*
X137719498Y-99005422D01*
X137740376Y-99072099D01*
X137721892Y-99139479D01*
X137716715Y-99147198D01*
X137663239Y-99220801D01*
X137577454Y-99389163D01*
X137519059Y-99568881D01*
X137489500Y-99755513D01*
X137489500Y-99944486D01*
X137519059Y-100131118D01*
X137577454Y-100310836D01*
X137663239Y-100479198D01*
X137663240Y-100479199D01*
X137665814Y-100482742D01*
X137689297Y-100548546D01*
X137689500Y-100555632D01*
X137689500Y-103454596D01*
X137669815Y-103521635D01*
X137638387Y-103554913D01*
X137597929Y-103584307D01*
X137464312Y-103717924D01*
X137464312Y-103717925D01*
X137464310Y-103717927D01*
X137416610Y-103783579D01*
X137353240Y-103870800D01*
X137267454Y-104039163D01*
X137209059Y-104218881D01*
X137179500Y-104405513D01*
X137179500Y-104594486D01*
X137209059Y-104781118D01*
X137267454Y-104960836D01*
X137353240Y-105129199D01*
X137464310Y-105282073D01*
X137597927Y-105415690D01*
X137619220Y-105431160D01*
X137750802Y-105526761D01*
X137789196Y-105546323D01*
X137811794Y-105557837D01*
X137862590Y-105605810D01*
X137879500Y-105668322D01*
X137879500Y-108294366D01*
X137859815Y-108361405D01*
X137855821Y-108367247D01*
X137853242Y-108370796D01*
X137767454Y-108539163D01*
X137709059Y-108718881D01*
X137679500Y-108905513D01*
X137679500Y-109094486D01*
X137709059Y-109281118D01*
X137767454Y-109460836D01*
X137841523Y-109606203D01*
X137853240Y-109629199D01*
X137964310Y-109782073D01*
X138097927Y-109915690D01*
X138250801Y-110026760D01*
X138280119Y-110041698D01*
X138419163Y-110112545D01*
X138419165Y-110112545D01*
X138419168Y-110112547D01*
X138598882Y-110170940D01*
X138601177Y-110171303D01*
X138603212Y-110171626D01*
X138666348Y-110201554D01*
X138671499Y-110206419D01*
X142113181Y-113648101D01*
X142146666Y-113709424D01*
X142149500Y-113735782D01*
X142149500Y-123260342D01*
X142129815Y-123327381D01*
X142125818Y-123333228D01*
X142106135Y-123360318D01*
X142018916Y-123531493D01*
X141959553Y-123714197D01*
X141929500Y-123903945D01*
X141929500Y-124096054D01*
X141959553Y-124285802D01*
X142018916Y-124468506D01*
X142018918Y-124468509D01*
X142106135Y-124639681D01*
X142219055Y-124795102D01*
X142354898Y-124930945D01*
X142510319Y-125043865D01*
X142681491Y-125131082D01*
X142681493Y-125131083D01*
X142772845Y-125160764D01*
X142864199Y-125190447D01*
X143053945Y-125220500D01*
X143053946Y-125220500D01*
X143246054Y-125220500D01*
X143246055Y-125220500D01*
X143435801Y-125190447D01*
X143618509Y-125131082D01*
X143789681Y-125043865D01*
X143945102Y-124930945D01*
X144080945Y-124795102D01*
X144193865Y-124639681D01*
X144281082Y-124468509D01*
X144340447Y-124285801D01*
X144370500Y-124096055D01*
X144370500Y-123903945D01*
X144340447Y-123714199D01*
X144281082Y-123531491D01*
X144193865Y-123360319D01*
X144174181Y-123333227D01*
X144150702Y-123267422D01*
X144150500Y-123260342D01*
X144150500Y-113171456D01*
X144138833Y-113112809D01*
X144122977Y-113033095D01*
X144112051Y-112978164D01*
X144073654Y-112885466D01*
X144036632Y-112796086D01*
X143999530Y-112740559D01*
X143927139Y-112632217D01*
X143784686Y-112489764D01*
X143784655Y-112489735D01*
X141507101Y-110212181D01*
X141473616Y-110150858D01*
X141478600Y-110081166D01*
X141520472Y-110025233D01*
X141585936Y-110000816D01*
X141594782Y-110000500D01*
X145794367Y-110000500D01*
X145861406Y-110020185D01*
X145867254Y-110024183D01*
X145870799Y-110026759D01*
X146039163Y-110112545D01*
X146039165Y-110112545D01*
X146039168Y-110112547D01*
X146135497Y-110143846D01*
X146218881Y-110170940D01*
X146405514Y-110200500D01*
X146405519Y-110200500D01*
X146594486Y-110200500D01*
X146781118Y-110170940D01*
X146960832Y-110112547D01*
X147129199Y-110026760D01*
X147282073Y-109915690D01*
X147415690Y-109782073D01*
X147512469Y-109648867D01*
X147567798Y-109606203D01*
X147637411Y-109600224D01*
X147699206Y-109632829D01*
X147700467Y-109634073D01*
X149887181Y-111820787D01*
X149920666Y-111882110D01*
X149923500Y-111908468D01*
X149923500Y-115522544D01*
X149961076Y-115711450D01*
X149961947Y-115715830D01*
X149961951Y-115715842D01*
X150037364Y-115897907D01*
X150037371Y-115897920D01*
X150146860Y-116061781D01*
X150146863Y-116061785D01*
X150290530Y-116205452D01*
X150290549Y-116205469D01*
X150354094Y-116269014D01*
X150362220Y-116277140D01*
X150526079Y-116386627D01*
X150526083Y-116386629D01*
X150526086Y-116386631D01*
X150708164Y-116462051D01*
X150901455Y-116500499D01*
X150901458Y-116500500D01*
X150901460Y-116500500D01*
X150925500Y-116500500D01*
X150992539Y-116520185D01*
X151038294Y-116572989D01*
X151049500Y-116624500D01*
X151049500Y-121771094D01*
X151029815Y-121838133D01*
X151013181Y-121858775D01*
X146758429Y-126113526D01*
X146697106Y-126147011D01*
X146627414Y-126142027D01*
X146571481Y-126100155D01*
X146556189Y-126073301D01*
X146536632Y-126026086D01*
X146536628Y-126026079D01*
X146427139Y-125862218D01*
X146427136Y-125862214D01*
X146287785Y-125722863D01*
X146287781Y-125722860D01*
X146123920Y-125613371D01*
X146123907Y-125613364D01*
X145941839Y-125537950D01*
X145941829Y-125537947D01*
X145748543Y-125499500D01*
X145748541Y-125499500D01*
X141286056Y-125499500D01*
X141229761Y-125485985D01*
X141078506Y-125408916D01*
X140895802Y-125349553D01*
X140800928Y-125334526D01*
X140706055Y-125319500D01*
X140513945Y-125319500D01*
X140450696Y-125329517D01*
X140324197Y-125349553D01*
X140141493Y-125408916D01*
X139990239Y-125485985D01*
X139933944Y-125499500D01*
X137425782Y-125499500D01*
X137358743Y-125479815D01*
X137338101Y-125463181D01*
X134135996Y-122261076D01*
X134102511Y-122199753D01*
X134107495Y-122130061D01*
X134149367Y-122074128D01*
X134185356Y-122055465D01*
X134309219Y-122015220D01*
X134491610Y-121922287D01*
X134629017Y-121822456D01*
X134657213Y-121801971D01*
X134657215Y-121801968D01*
X134657219Y-121801966D01*
X134801966Y-121657219D01*
X134801968Y-121657215D01*
X134801971Y-121657213D01*
X134854732Y-121584590D01*
X134922287Y-121491610D01*
X135015220Y-121309219D01*
X135078477Y-121114534D01*
X135110500Y-120912352D01*
X135110500Y-120707648D01*
X135078477Y-120505466D01*
X135074204Y-120492316D01*
X135015218Y-120310776D01*
X134981503Y-120244607D01*
X134922287Y-120128390D01*
X134914556Y-120117749D01*
X134801971Y-119962786D01*
X134657213Y-119818028D01*
X134491614Y-119697715D01*
X134485006Y-119694348D01*
X134398917Y-119650483D01*
X134348123Y-119602511D01*
X134331328Y-119534690D01*
X134353865Y-119468555D01*
X134398917Y-119429516D01*
X134491610Y-119382287D01*
X134512770Y-119366913D01*
X134657213Y-119261971D01*
X134657215Y-119261968D01*
X134657219Y-119261966D01*
X134801966Y-119117219D01*
X134801968Y-119117215D01*
X134801971Y-119117213D01*
X134854732Y-119044590D01*
X134922287Y-118951610D01*
X135015220Y-118769219D01*
X135078477Y-118574534D01*
X135110500Y-118372352D01*
X135110500Y-118167648D01*
X135078477Y-117965466D01*
X135015220Y-117770781D01*
X135015218Y-117770778D01*
X135015218Y-117770776D01*
X134981503Y-117704607D01*
X134922287Y-117588390D01*
X134914556Y-117577749D01*
X134801971Y-117422786D01*
X134657213Y-117278028D01*
X134491614Y-117157715D01*
X134485006Y-117154348D01*
X134398917Y-117110483D01*
X134348123Y-117062511D01*
X134331328Y-116994690D01*
X134353865Y-116928555D01*
X134398917Y-116889516D01*
X134491610Y-116842287D01*
X134575306Y-116781479D01*
X134657213Y-116721971D01*
X134657215Y-116721968D01*
X134657219Y-116721966D01*
X134801966Y-116577219D01*
X134801968Y-116577215D01*
X134801971Y-116577213D01*
X134857706Y-116500499D01*
X134922287Y-116411610D01*
X135015220Y-116229219D01*
X135078477Y-116034534D01*
X135110500Y-115832352D01*
X135110500Y-115627648D01*
X135078477Y-115425466D01*
X135015220Y-115230781D01*
X135015218Y-115230778D01*
X135015218Y-115230776D01*
X134981503Y-115164607D01*
X134922287Y-115048390D01*
X134911003Y-115032859D01*
X134801971Y-114882786D01*
X134657213Y-114738028D01*
X134491614Y-114617715D01*
X134485006Y-114614348D01*
X134398917Y-114570483D01*
X134348123Y-114522511D01*
X134331328Y-114454690D01*
X134353865Y-114388555D01*
X134398917Y-114349516D01*
X134491610Y-114302287D01*
X134512770Y-114286913D01*
X134657213Y-114181971D01*
X134657215Y-114181968D01*
X134657219Y-114181966D01*
X134801966Y-114037219D01*
X134801968Y-114037215D01*
X134801971Y-114037213D01*
X134854732Y-113964590D01*
X134922287Y-113871610D01*
X135015220Y-113689219D01*
X135078477Y-113494534D01*
X135110500Y-113292352D01*
X135110500Y-113087648D01*
X135078477Y-112885466D01*
X135015220Y-112690781D01*
X135015218Y-112690778D01*
X135015218Y-112690776D01*
X134963865Y-112589992D01*
X134922287Y-112508390D01*
X134908755Y-112489764D01*
X134801971Y-112342786D01*
X134657213Y-112198028D01*
X134491613Y-112077715D01*
X134491612Y-112077714D01*
X134491610Y-112077713D01*
X134431896Y-112047287D01*
X134309223Y-111984781D01*
X134114534Y-111921522D01*
X133939995Y-111893878D01*
X133912352Y-111889500D01*
X133707648Y-111889500D01*
X133683329Y-111893351D01*
X133505465Y-111921522D01*
X133310776Y-111984781D01*
X133128386Y-112077715D01*
X132962786Y-112198028D01*
X132818028Y-112342786D01*
X132697715Y-112508386D01*
X132604781Y-112690776D01*
X132541522Y-112885465D01*
X132509500Y-113087648D01*
X132509500Y-113292351D01*
X132541522Y-113494534D01*
X132604781Y-113689223D01*
X132656135Y-113790009D01*
X132678374Y-113833656D01*
X132697715Y-113871613D01*
X132818028Y-114037213D01*
X132962786Y-114181971D01*
X133117749Y-114294556D01*
X133128390Y-114302287D01*
X133219840Y-114348883D01*
X133221080Y-114349515D01*
X133271876Y-114397490D01*
X133288671Y-114465311D01*
X133266134Y-114531446D01*
X133221080Y-114570485D01*
X133128386Y-114617715D01*
X132962786Y-114738028D01*
X132818028Y-114882786D01*
X132697715Y-115048386D01*
X132604781Y-115230776D01*
X132541522Y-115425465D01*
X132509500Y-115627648D01*
X132509500Y-115832351D01*
X132541522Y-116034534D01*
X132604781Y-116229223D01*
X132697715Y-116411613D01*
X132818028Y-116577213D01*
X132962786Y-116721971D01*
X133117749Y-116834556D01*
X133128390Y-116842287D01*
X133219840Y-116888883D01*
X133221080Y-116889515D01*
X133271876Y-116937490D01*
X133288671Y-117005311D01*
X133266134Y-117071446D01*
X133221080Y-117110485D01*
X133128386Y-117157715D01*
X132962786Y-117278028D01*
X132818028Y-117422786D01*
X132697715Y-117588386D01*
X132604781Y-117770776D01*
X132541522Y-117965465D01*
X132509500Y-118167648D01*
X132509500Y-118372351D01*
X132541522Y-118574534D01*
X132604781Y-118769223D01*
X132697715Y-118951613D01*
X132818028Y-119117213D01*
X132962786Y-119261971D01*
X133117749Y-119374556D01*
X133128390Y-119382287D01*
X133219840Y-119428883D01*
X133221080Y-119429515D01*
X133271876Y-119477490D01*
X133288671Y-119545311D01*
X133266134Y-119611446D01*
X133221080Y-119650485D01*
X133128386Y-119697715D01*
X132962786Y-119818028D01*
X132818028Y-119962786D01*
X132697715Y-120128386D01*
X132604781Y-120310776D01*
X132564535Y-120434641D01*
X132525097Y-120492316D01*
X132460738Y-120519514D01*
X132391892Y-120507599D01*
X132358923Y-120484003D01*
X128205257Y-116330337D01*
X128171772Y-116269014D01*
X128176756Y-116199322D01*
X128178377Y-116195203D01*
X128217052Y-116101835D01*
X128255501Y-115908540D01*
X128255501Y-115711459D01*
X128255501Y-115711456D01*
X128255500Y-115711450D01*
X128217053Y-115518171D01*
X128217052Y-115518164D01*
X128141632Y-115336085D01*
X128141631Y-115336084D01*
X128141628Y-115336078D01*
X128032140Y-115172218D01*
X128032137Y-115172214D01*
X127892785Y-115032862D01*
X127892781Y-115032859D01*
X127728921Y-114923371D01*
X127728912Y-114923366D01*
X127546836Y-114847948D01*
X127546828Y-114847946D01*
X127353544Y-114809499D01*
X127353541Y-114809499D01*
X127190146Y-114809499D01*
X127186887Y-114808542D01*
X127183583Y-114809325D01*
X127153601Y-114798768D01*
X127123107Y-114789814D01*
X127119933Y-114786913D01*
X127117680Y-114786120D01*
X127107283Y-114775352D01*
X127092267Y-114761628D01*
X127089522Y-114758099D01*
X127032139Y-114672219D01*
X126989776Y-114629856D01*
X126985034Y-114623759D01*
X126974938Y-114598146D01*
X126961747Y-114573988D01*
X126962310Y-114566108D01*
X126959413Y-114558757D01*
X126964767Y-114531754D01*
X126966731Y-114504296D01*
X126971466Y-114497970D01*
X126973003Y-114490221D01*
X126992106Y-114470399D01*
X127008603Y-114448363D01*
X127018148Y-114443378D01*
X127021488Y-114439913D01*
X127027520Y-114438483D01*
X127043907Y-114429925D01*
X127059334Y-114424814D01*
X127208656Y-114332712D01*
X127332712Y-114208656D01*
X127424814Y-114059334D01*
X127479999Y-113892797D01*
X127490500Y-113790009D01*
X127490499Y-112589992D01*
X127479999Y-112487203D01*
X127424814Y-112320666D01*
X127332712Y-112171344D01*
X127208656Y-112047288D01*
X127059334Y-111955186D01*
X126892797Y-111900001D01*
X126892795Y-111900000D01*
X126790010Y-111889500D01*
X125589998Y-111889500D01*
X125589981Y-111889501D01*
X125487203Y-111900000D01*
X125487200Y-111900001D01*
X125320668Y-111955185D01*
X125320663Y-111955187D01*
X125171345Y-112047287D01*
X125065450Y-112153182D01*
X125004127Y-112186666D01*
X124977769Y-112189500D01*
X115655783Y-112189500D01*
X115588744Y-112169815D01*
X115568102Y-112153181D01*
X114036819Y-110621898D01*
X114003334Y-110560575D01*
X114000500Y-110534217D01*
X114000500Y-87124500D01*
X114020185Y-87057461D01*
X114072989Y-87011706D01*
X114124500Y-87000500D01*
X148034218Y-87000500D01*
X148101257Y-87020185D01*
G37*
%TD.AperFunction*%
%TA.AperFunction,NonConductor*%
G36*
X152169834Y-123634477D02*
G01*
X152225767Y-123676349D01*
X152250184Y-123741813D01*
X152250500Y-123750659D01*
X152250500Y-128783217D01*
X152230815Y-128850256D01*
X152214181Y-128870898D01*
X151610899Y-129474181D01*
X151549576Y-129507666D01*
X151523218Y-129510500D01*
X146490659Y-129510500D01*
X146423620Y-129490815D01*
X146377865Y-129438011D01*
X146367921Y-129368853D01*
X146396946Y-129305297D01*
X146402978Y-129298819D01*
X152038819Y-123662978D01*
X152100142Y-123629493D01*
X152169834Y-123634477D01*
G37*
%TD.AperFunction*%
%TA.AperFunction,NonConductor*%
G36*
X139882326Y-127520185D02*
G01*
X139888163Y-127524175D01*
X139970319Y-127583865D01*
X140141491Y-127671082D01*
X140141493Y-127671083D01*
X140232845Y-127700764D01*
X140324199Y-127730447D01*
X140513945Y-127760500D01*
X140513946Y-127760500D01*
X140706054Y-127760500D01*
X140706055Y-127760500D01*
X140895801Y-127730447D01*
X141078509Y-127671082D01*
X141249681Y-127583865D01*
X141331828Y-127524181D01*
X141397634Y-127500702D01*
X141404713Y-127500500D01*
X145072095Y-127500500D01*
X145139134Y-127520185D01*
X145184889Y-127572989D01*
X145194833Y-127642147D01*
X145165808Y-127705703D01*
X145159776Y-127712181D01*
X144908776Y-127963181D01*
X144847453Y-127996666D01*
X144821095Y-127999500D01*
X143747552Y-127999500D01*
X143691257Y-127985985D01*
X143618506Y-127948916D01*
X143435802Y-127889553D01*
X143340928Y-127874526D01*
X143246055Y-127859500D01*
X143053945Y-127859500D01*
X142990696Y-127869517D01*
X142864197Y-127889553D01*
X142681493Y-127948916D01*
X142510318Y-128036135D01*
X142421645Y-128100560D01*
X142354898Y-128149055D01*
X142354896Y-128149057D01*
X142354895Y-128149057D01*
X142219057Y-128284895D01*
X142219057Y-128284896D01*
X142219055Y-128284898D01*
X142170560Y-128351645D01*
X142106135Y-128440318D01*
X142018916Y-128611493D01*
X141959553Y-128794197D01*
X141929500Y-128983945D01*
X141929500Y-129176054D01*
X141959759Y-129367102D01*
X141950804Y-129436396D01*
X141905808Y-129489848D01*
X141839057Y-129510487D01*
X141837286Y-129510500D01*
X138896782Y-129510500D01*
X138829743Y-129490815D01*
X138809101Y-129474181D01*
X137047101Y-127712181D01*
X137013616Y-127650858D01*
X137018600Y-127581166D01*
X137060472Y-127525233D01*
X137125936Y-127500816D01*
X137134782Y-127500500D01*
X139815287Y-127500500D01*
X139882326Y-127520185D01*
G37*
%TD.AperFunction*%
%TA.AperFunction,NonConductor*%
G36*
X111975309Y-85620185D02*
G01*
X112021064Y-85672989D01*
X112031008Y-85742147D01*
X112029887Y-85748691D01*
X111999500Y-85901454D01*
X111999500Y-85901459D01*
X111999500Y-111098541D01*
X111999500Y-111098543D01*
X111999499Y-111098543D01*
X112037947Y-111291829D01*
X112037950Y-111291839D01*
X112113364Y-111473907D01*
X112113371Y-111473920D01*
X112222859Y-111637780D01*
X112222860Y-111637781D01*
X112222861Y-111637782D01*
X112362218Y-111777139D01*
X112362219Y-111777139D01*
X112369286Y-111784206D01*
X112369285Y-111784206D01*
X112369289Y-111784209D01*
X112562899Y-111977819D01*
X112596384Y-112039142D01*
X112591400Y-112108834D01*
X112549528Y-112164767D01*
X112484064Y-112189184D01*
X112475218Y-112189500D01*
X102655783Y-112189500D01*
X102626342Y-112180855D01*
X102596356Y-112174332D01*
X102591340Y-112170577D01*
X102588744Y-112169815D01*
X102568102Y-112153181D01*
X102536819Y-112121898D01*
X102503334Y-112060575D01*
X102500500Y-112034217D01*
X102500500Y-101624500D01*
X102520185Y-101557461D01*
X102572989Y-101511706D01*
X102624500Y-101500500D01*
X104687837Y-101500500D01*
X104754876Y-101520185D01*
X104800631Y-101572989D01*
X104809088Y-101598533D01*
X104810000Y-101602795D01*
X104865186Y-101769335D01*
X104865187Y-101769337D01*
X104957286Y-101918651D01*
X104957289Y-101918655D01*
X105081344Y-102042710D01*
X105081348Y-102042713D01*
X105230662Y-102134812D01*
X105230664Y-102134813D01*
X105230666Y-102134814D01*
X105397203Y-102189999D01*
X105499992Y-102200500D01*
X105499997Y-102200500D01*
X107500003Y-102200500D01*
X107500008Y-102200500D01*
X107602797Y-102189999D01*
X107769334Y-102134814D01*
X107918655Y-102042711D01*
X108042711Y-101918655D01*
X108134814Y-101769334D01*
X108189999Y-101602797D01*
X108200500Y-101500008D01*
X108200500Y-99499992D01*
X108189999Y-99397203D01*
X108134814Y-99230666D01*
X108128729Y-99220801D01*
X108042713Y-99081348D01*
X108042710Y-99081344D01*
X107918655Y-98957289D01*
X107918651Y-98957286D01*
X107769337Y-98865187D01*
X107769335Y-98865186D01*
X107686065Y-98837593D01*
X107602797Y-98810001D01*
X107602795Y-98810000D01*
X107500015Y-98799500D01*
X107500008Y-98799500D01*
X105499992Y-98799500D01*
X105499984Y-98799500D01*
X105397204Y-98810000D01*
X105397203Y-98810001D01*
X105230664Y-98865186D01*
X105230662Y-98865187D01*
X105081348Y-98957286D01*
X105081344Y-98957289D01*
X104957289Y-99081344D01*
X104957286Y-99081348D01*
X104865187Y-99230662D01*
X104865186Y-99230664D01*
X104810000Y-99397204D01*
X104809088Y-99401467D01*
X104775801Y-99462898D01*
X104714586Y-99496581D01*
X104687837Y-99499500D01*
X101401457Y-99499500D01*
X101208170Y-99537947D01*
X101208160Y-99537950D01*
X101026092Y-99613364D01*
X101026079Y-99613371D01*
X100862218Y-99722860D01*
X100862214Y-99722863D01*
X100722863Y-99862214D01*
X100722860Y-99862218D01*
X100613371Y-100026079D01*
X100613364Y-100026092D01*
X100537950Y-100208160D01*
X100537947Y-100208170D01*
X100499500Y-100401456D01*
X100499500Y-112598544D01*
X100537947Y-112791828D01*
X100537950Y-112791840D01*
X100554862Y-112832668D01*
X100554863Y-112832670D01*
X100613364Y-112973906D01*
X100613371Y-112973919D01*
X100652911Y-113033095D01*
X100722861Y-113137782D01*
X100862218Y-113277139D01*
X100862220Y-113277140D01*
X100869286Y-113284206D01*
X100869285Y-113284206D01*
X100869288Y-113284208D01*
X101412860Y-113827781D01*
X101412861Y-113827782D01*
X101552218Y-113967139D01*
X101716086Y-114076632D01*
X101822745Y-114120811D01*
X101898164Y-114152051D01*
X102091454Y-114190499D01*
X102091457Y-114190500D01*
X102091459Y-114190500D01*
X115091459Y-114190500D01*
X115091460Y-114190500D01*
X115288540Y-114190500D01*
X124977769Y-114190500D01*
X125044808Y-114210185D01*
X125065450Y-114226818D01*
X125171344Y-114332712D01*
X125320666Y-114424814D01*
X125402570Y-114451954D01*
X125460015Y-114491727D01*
X125486838Y-114556243D01*
X125474523Y-114625018D01*
X125436451Y-114669978D01*
X125342787Y-114738028D01*
X125342782Y-114738032D01*
X125198028Y-114882786D01*
X125077715Y-115048386D01*
X124984781Y-115230776D01*
X124921522Y-115425465D01*
X124889500Y-115627648D01*
X124889500Y-115832351D01*
X124921522Y-116034534D01*
X124984781Y-116229223D01*
X125077715Y-116411613D01*
X125198028Y-116577213D01*
X125342786Y-116721971D01*
X125497749Y-116834556D01*
X125508390Y-116842287D01*
X125599840Y-116888883D01*
X125601080Y-116889515D01*
X125651876Y-116937490D01*
X125668671Y-117005311D01*
X125646134Y-117071446D01*
X125601080Y-117110485D01*
X125508386Y-117157715D01*
X125387123Y-117245818D01*
X125321317Y-117269298D01*
X125314238Y-117269500D01*
X101735782Y-117269500D01*
X101668743Y-117249815D01*
X101648101Y-117233181D01*
X100036819Y-115621899D01*
X100003334Y-115560576D01*
X100000500Y-115534218D01*
X100000500Y-93017000D01*
X100020185Y-92949961D01*
X100072989Y-92904206D01*
X100124500Y-92893000D01*
X104687837Y-92893000D01*
X104754876Y-92912685D01*
X104800631Y-92965489D01*
X104809088Y-92991033D01*
X104810000Y-92995295D01*
X104865186Y-93161835D01*
X104865187Y-93161837D01*
X104957286Y-93311151D01*
X104957289Y-93311155D01*
X105081344Y-93435210D01*
X105081348Y-93435213D01*
X105230662Y-93527312D01*
X105230664Y-93527313D01*
X105230666Y-93527314D01*
X105397203Y-93582499D01*
X105499992Y-93593000D01*
X105499997Y-93593000D01*
X107500003Y-93593000D01*
X107500008Y-93593000D01*
X107602797Y-93582499D01*
X107769334Y-93527314D01*
X107918655Y-93435211D01*
X108042711Y-93311155D01*
X108134814Y-93161834D01*
X108189999Y-92995297D01*
X108200500Y-92892508D01*
X108200500Y-90892492D01*
X108189999Y-90789703D01*
X108134814Y-90623166D01*
X108127468Y-90611257D01*
X108042713Y-90473848D01*
X108042710Y-90473844D01*
X107918655Y-90349789D01*
X107918651Y-90349786D01*
X107769337Y-90257687D01*
X107769335Y-90257686D01*
X107658907Y-90221094D01*
X107602797Y-90202501D01*
X107602795Y-90202500D01*
X107500015Y-90192000D01*
X107500008Y-90192000D01*
X105499992Y-90192000D01*
X105499984Y-90192000D01*
X105397204Y-90202500D01*
X105397203Y-90202501D01*
X105230664Y-90257686D01*
X105230662Y-90257687D01*
X105081348Y-90349786D01*
X105081344Y-90349789D01*
X104957289Y-90473844D01*
X104957286Y-90473848D01*
X104865187Y-90623162D01*
X104865186Y-90623164D01*
X104810000Y-90789704D01*
X104809088Y-90793967D01*
X104775801Y-90855398D01*
X104714586Y-90889081D01*
X104687837Y-90892000D01*
X99008958Y-90892000D01*
X98979549Y-90897850D01*
X98979546Y-90897850D01*
X98976282Y-90898500D01*
X98815664Y-90930449D01*
X98765403Y-90951268D01*
X98757230Y-90954652D01*
X98757223Y-90954655D01*
X98633592Y-91005864D01*
X98633579Y-91005871D01*
X98469719Y-91115359D01*
X98415969Y-91169110D01*
X98362218Y-91222861D01*
X98323861Y-91261218D01*
X98222859Y-91362219D01*
X98113369Y-91526082D01*
X98070767Y-91628933D01*
X98070765Y-91628939D01*
X98068338Y-91634799D01*
X98037949Y-91708164D01*
X98020883Y-91793959D01*
X98019746Y-91799672D01*
X98019744Y-91799681D01*
X97999500Y-91901457D01*
X97999500Y-91901459D01*
X97999500Y-116098541D01*
X97999500Y-116098543D01*
X97999499Y-116098543D01*
X98037947Y-116291829D01*
X98037950Y-116291839D01*
X98113364Y-116473907D01*
X98113371Y-116473920D01*
X98222860Y-116637781D01*
X98222863Y-116637785D01*
X98366537Y-116781459D01*
X98366559Y-116781479D01*
X100722861Y-119137781D01*
X100847046Y-119261966D01*
X100862220Y-119277140D01*
X101026079Y-119386627D01*
X101026083Y-119386629D01*
X101026086Y-119386631D01*
X101208164Y-119462051D01*
X101401455Y-119500499D01*
X101401458Y-119500500D01*
X101401460Y-119500500D01*
X101598542Y-119500500D01*
X101598543Y-119500499D01*
X101791836Y-119462051D01*
X101973914Y-119386631D01*
X102116441Y-119291398D01*
X102183119Y-119270520D01*
X102185332Y-119270500D01*
X125314238Y-119270500D01*
X125381277Y-119290185D01*
X125387119Y-119294179D01*
X125508390Y-119382287D01*
X125599840Y-119428883D01*
X125601080Y-119429515D01*
X125651876Y-119477490D01*
X125668671Y-119545311D01*
X125646134Y-119611446D01*
X125601080Y-119650485D01*
X125508386Y-119697715D01*
X125342786Y-119818028D01*
X125198028Y-119962786D01*
X125077715Y-120128386D01*
X124984781Y-120310776D01*
X124921522Y-120505465D01*
X124889500Y-120707648D01*
X124889500Y-120912351D01*
X124921522Y-121114534D01*
X124984781Y-121309223D01*
X125077715Y-121491613D01*
X125198028Y-121657213D01*
X125342786Y-121801971D01*
X125497749Y-121914556D01*
X125508390Y-121922287D01*
X125624607Y-121981503D01*
X125690776Y-122015218D01*
X125690778Y-122015218D01*
X125690781Y-122015220D01*
X125795137Y-122049127D01*
X125885465Y-122078477D01*
X125986557Y-122094488D01*
X126087648Y-122110500D01*
X126087649Y-122110500D01*
X126292351Y-122110500D01*
X126292352Y-122110500D01*
X126494534Y-122078477D01*
X126689219Y-122015220D01*
X126871610Y-121922287D01*
X127009017Y-121822456D01*
X127037213Y-121801971D01*
X127037215Y-121801968D01*
X127037219Y-121801966D01*
X127181966Y-121657219D01*
X127181968Y-121657215D01*
X127181971Y-121657213D01*
X127234732Y-121584590D01*
X127302287Y-121491610D01*
X127395220Y-121309219D01*
X127435465Y-121185357D01*
X127474901Y-121127684D01*
X127539260Y-121100485D01*
X127608106Y-121112400D01*
X127641076Y-121135996D01*
X137650735Y-131145655D01*
X137650764Y-131145686D01*
X137793214Y-131288136D01*
X137793218Y-131288139D01*
X137957079Y-131397628D01*
X137957092Y-131397635D01*
X138085833Y-131450961D01*
X138128744Y-131468735D01*
X138139164Y-131473051D01*
X138235812Y-131492275D01*
X138284135Y-131501887D01*
X138332458Y-131511500D01*
X138332459Y-131511500D01*
X152087542Y-131511500D01*
X152118566Y-131505328D01*
X152184188Y-131492275D01*
X152280836Y-131473051D01*
X152334165Y-131450961D01*
X152462914Y-131397632D01*
X152626782Y-131288139D01*
X152766139Y-131148782D01*
X152766139Y-131148780D01*
X152776347Y-131138573D01*
X152776348Y-131138570D01*
X154028140Y-129886781D01*
X154137632Y-129722914D01*
X154213052Y-129540835D01*
X154251501Y-129347540D01*
X154251501Y-129150459D01*
X154251501Y-129145349D01*
X154251500Y-129145323D01*
X154251500Y-113935051D01*
X154238880Y-113871610D01*
X154230162Y-113827781D01*
X154213051Y-113741759D01*
X154180806Y-113663914D01*
X154137632Y-113559681D01*
X154094102Y-113494534D01*
X154028139Y-113395812D01*
X153885686Y-113253359D01*
X153885655Y-113253330D01*
X153372884Y-112740559D01*
X153372864Y-112740537D01*
X153229190Y-112596863D01*
X153229184Y-112596858D01*
X153180608Y-112564400D01*
X153135804Y-112510788D01*
X153125500Y-112461299D01*
X153125500Y-106526457D01*
X153106275Y-106429813D01*
X153106275Y-106429812D01*
X153087051Y-106333164D01*
X153028925Y-106192836D01*
X153011632Y-106151086D01*
X152902139Y-105987218D01*
X152762782Y-105847861D01*
X152762781Y-105847860D01*
X149626378Y-102711458D01*
X149626375Y-102711453D01*
X149545654Y-102630732D01*
X149502601Y-102587678D01*
X149469116Y-102526355D01*
X149471787Y-102489017D01*
X149474101Y-102456664D01*
X149502602Y-102412317D01*
X153422373Y-98492546D01*
X157407778Y-94507141D01*
X157407782Y-94507139D01*
X157547139Y-94367782D01*
X157656632Y-94203914D01*
X157709961Y-94075165D01*
X157732051Y-94021836D01*
X157770500Y-93828540D01*
X157770500Y-93631460D01*
X157770500Y-89531469D01*
X157790185Y-89464430D01*
X157806819Y-89443788D01*
X157810646Y-89439961D01*
X157838242Y-89412365D01*
X157967815Y-89234022D01*
X158067895Y-89037606D01*
X158136015Y-88827951D01*
X158170500Y-88610222D01*
X158170500Y-88389778D01*
X158136015Y-88172049D01*
X158067895Y-87962394D01*
X158067895Y-87962393D01*
X158033237Y-87894375D01*
X157967815Y-87765978D01*
X157909501Y-87685715D01*
X157838247Y-87587641D01*
X157838243Y-87587636D01*
X157682363Y-87431756D01*
X157682358Y-87431752D01*
X157504025Y-87302187D01*
X157504024Y-87302186D01*
X157504022Y-87302185D01*
X157386791Y-87242452D01*
X157307606Y-87202104D01*
X157307603Y-87202103D01*
X157097952Y-87133985D01*
X156989086Y-87116742D01*
X156880222Y-87099500D01*
X156659778Y-87099500D01*
X156587201Y-87110995D01*
X156442047Y-87133985D01*
X156232396Y-87202103D01*
X156232393Y-87202104D01*
X156035974Y-87302187D01*
X155857641Y-87431752D01*
X155857636Y-87431756D01*
X155807463Y-87481929D01*
X155746140Y-87515413D01*
X155676448Y-87510428D01*
X155620515Y-87468557D01*
X155603601Y-87437580D01*
X155573797Y-87357671D01*
X155573793Y-87357664D01*
X155487547Y-87242455D01*
X155487544Y-87242452D01*
X155372335Y-87156206D01*
X155372328Y-87156202D01*
X155237482Y-87105908D01*
X155237483Y-87105908D01*
X155177883Y-87099501D01*
X155177881Y-87099500D01*
X155177873Y-87099500D01*
X155177864Y-87099500D01*
X153282129Y-87099500D01*
X153282123Y-87099501D01*
X153222516Y-87105908D01*
X153087671Y-87156202D01*
X153087664Y-87156206D01*
X152972455Y-87242452D01*
X152972452Y-87242455D01*
X152886206Y-87357664D01*
X152886202Y-87357671D01*
X152863391Y-87418833D01*
X152821520Y-87474767D01*
X152756056Y-87499184D01*
X152747209Y-87499500D01*
X151465782Y-87499500D01*
X151398743Y-87479815D01*
X151378101Y-87463181D01*
X149727101Y-85812181D01*
X149693616Y-85750858D01*
X149698600Y-85681166D01*
X149740472Y-85625233D01*
X149805936Y-85600816D01*
X149814782Y-85600500D01*
X159775500Y-85600500D01*
X159842539Y-85620185D01*
X159888294Y-85672989D01*
X159899500Y-85724500D01*
X159899500Y-132775500D01*
X159879815Y-132842539D01*
X159827011Y-132888294D01*
X159775500Y-132899500D01*
X96224500Y-132899500D01*
X96157461Y-132879815D01*
X96111706Y-132827011D01*
X96100500Y-132775500D01*
X96100500Y-122920943D01*
X98399500Y-122920943D01*
X98399500Y-125579056D01*
X98436704Y-125717907D01*
X98436704Y-125782093D01*
X98399500Y-125920943D01*
X98399500Y-130579056D01*
X98440423Y-130731783D01*
X98440426Y-130731790D01*
X98519475Y-130868709D01*
X98519479Y-130868714D01*
X98519480Y-130868716D01*
X98631284Y-130980520D01*
X98631286Y-130980521D01*
X98631290Y-130980524D01*
X98768209Y-131059573D01*
X98768216Y-131059577D01*
X98920943Y-131100500D01*
X98920945Y-131100500D01*
X123079055Y-131100500D01*
X123079057Y-131100500D01*
X123231784Y-131059577D01*
X123368716Y-130980520D01*
X123480520Y-130868716D01*
X123559577Y-130731784D01*
X123600500Y-130579057D01*
X123600500Y-125920943D01*
X123563294Y-125782088D01*
X123563294Y-125717911D01*
X123600500Y-125579057D01*
X123600500Y-122920943D01*
X123559577Y-122768216D01*
X123559573Y-122768209D01*
X123480524Y-122631290D01*
X123480518Y-122631282D01*
X123368717Y-122519481D01*
X123368709Y-122519475D01*
X123231790Y-122440426D01*
X123231786Y-122440424D01*
X123231784Y-122440423D01*
X123079057Y-122399500D01*
X99079057Y-122399500D01*
X98920943Y-122399500D01*
X98768216Y-122440423D01*
X98768209Y-122440426D01*
X98631290Y-122519475D01*
X98631282Y-122519481D01*
X98519481Y-122631282D01*
X98519475Y-122631290D01*
X98440426Y-122768209D01*
X98440423Y-122768216D01*
X98399500Y-122920943D01*
X96100500Y-122920943D01*
X96100500Y-85724500D01*
X96120185Y-85657461D01*
X96172989Y-85611706D01*
X96224500Y-85600500D01*
X111908270Y-85600500D01*
X111975309Y-85620185D01*
G37*
%TD.AperFunction*%
M02*
